HIERARCHY
ROOT Pelvis
{
	OFFSET 0.000000 0.000000 0.000000
	CHANNELS 6 Xposition Yposition Zposition Xrotation Yrotation Zrotation
	JOINT LeftUpLeg_virtual
	{
		OFFSET 0.000000 0.000000 0.000000
		CHANNELS 3 Xrotation Yrotation Zrotation
		JOINT LeftUpLeg
		{
			OFFSET 18.735201 -5.666702 -4.541200
			CHANNELS 3 Xrotation Yrotation Zrotation
			JOINT LeftLeg
			{
				OFFSET -0.021200 -31.938179 0.493100
				CHANNELS 3 Xrotation Yrotation Zrotation
				JOINT LeftFoot
				{
					OFFSET 0.021200 -31.938179 -4.336299
					CHANNELS 3 Xrotation Yrotation Zrotation
					JOINT LeftToeBase
					{
						OFFSET 0.943001 -26.722000 15.023500
						CHANNELS 3 Xrotation Yrotation Zrotation
						End Site
						{
							OFFSET 0 0 0
						}
					}
				}
			}
		}
	}
	JOINT RightUpLeg_virtual
	{
		OFFSET 0.000000 0.000000 0.000000
		CHANNELS 3 Xrotation Yrotation Zrotation
		JOINT RightUpLeg
		{
			OFFSET -18.735201 -5.666702 -4.541200
			CHANNELS 3 Xrotation Yrotation Zrotation
			JOINT RightLeg
			{
				OFFSET 0.018946 -31.938133 0.493100
				CHANNELS 3 Xrotation Yrotation Zrotation
				JOINT RightFoot
				{
					OFFSET -0.018946 -31.938126 -4.336299
					CHANNELS 3 Xrotation Yrotation Zrotation
					JOINT RightToeBase
					{
						OFFSET -0.943001 -26.722004 15.023500
						CHANNELS 3 Xrotation Yrotation Zrotation
						End Site
						{
							OFFSET 0 0 0
						}
					}
				}
			}
		}
	}
	JOINT Hips_virtual
	{
		OFFSET 0.000000 0.000000 0.000000
		CHANNELS 3 Xrotation Yrotation Zrotation
		JOINT Hips
		{
			OFFSET -0.000000 -0.000000 -0.000000
			CHANNELS 3 Xrotation Yrotation Zrotation
			JOINT Spine
			{
				OFFSET 0.000000 10.199997 -0.299500
				CHANNELS 3 Xrotation Yrotation Zrotation
				JOINT Spine1
				{
					OFFSET 0.000000 11.900002 -1.516600
					CHANNELS 3 Xrotation Yrotation Zrotation
					JOINT Spine2
					{
						OFFSET 0.000000 13.600006 -2.842500
						CHANNELS 3 Xrotation Yrotation Zrotation
						JOINT Neck_virtual
						{
							OFFSET 0.000000 0.000000 0.000000
							CHANNELS 3 Xrotation Yrotation Zrotation
							JOINT Neck
							{
								OFFSET 0.000000 9.624100 -2.890100
								CHANNELS 3 Xrotation Yrotation Zrotation
								JOINT Head
								{
									OFFSET 0.000000 14.068802 -1.351900
									CHANNELS 3 Xrotation Yrotation Zrotation
									End Site
									{
										OFFSET 0 0 0
									}
								}
							}
						}
						JOINT LeftShoulder_virtual
						{
							OFFSET 0.000000 0.000000 0.000000
							CHANNELS 3 Xrotation Yrotation Zrotation
							JOINT LeftShoulder
							{
								OFFSET 15.263000 10.923401 -0.547700
								CHANNELS 3 Xrotation Yrotation Zrotation
								JOINT LeftArm
								{
									OFFSET 25.438599 -2.830597 -13.032500
									CHANNELS 3 Xrotation Yrotation Zrotation
									JOINT LeftForeArm
									{
										OFFSET 29.960503 0.000000 0.000000
										CHANNELS 3 Xrotation Yrotation Zrotation
										JOINT LeftHand
										{
											OFFSET 27.849251 0.000000 0.000000
											CHANNELS 3 Xrotation Yrotation Zrotation
											End Site
											{
												OFFSET 0 0 0
											}
										}
									}
								}
							}
						}
						JOINT RightShoulder_virtual
						{
							OFFSET 0.000000 0.000000 0.000000
							CHANNELS 3 Xrotation Yrotation Zrotation
							JOINT RightShoulder
							{
								OFFSET -15.263000 10.923401 -0.547700
								CHANNELS 3 Xrotation Yrotation Zrotation
								JOINT RightArm
								{
									OFFSET -25.438599 -2.830597 -13.032500
									CHANNELS 3 Xrotation Yrotation Zrotation
									JOINT RightForeArm
									{
										OFFSET -29.960503 0.000000 0.000000
										CHANNELS 3 Xrotation Yrotation Zrotation
										JOINT RightHand
										{
											OFFSET -27.849251 0.000000 0.000000
											CHANNELS 3 Xrotation Yrotation Zrotation
											End Site
											{
												OFFSET 0 0 0
											}
										}
									}
								}
							}
						}
					}
				}
			}
		}
	}
}
MOTION
Frames: 13
Frame Time: 0.03333333
-0.419830 88.644699 8.714619 0.000000 0.000000 0.000000 -13.177768 -1.736937 -4.927003 -37.586319 19.084121 12.577158 46.052175 -8.863763 10.644338 1.288242 -7.811378 -1.547599 0.000000 0.000000 0.000000 -13.177768 -1.736937 -4.927003 -25.452225 -35.170994 -2.460132 39.537465 9.476714 -10.313954 -1.221877 6.610441 -5.475076 0.000000 0.000000 0.000000 -13.177768 -1.736937 -4.927003 0.000000 0.000000 0.000000 5.919614 -0.764458 2.897690 9.021538 -0.429999 -0.455594 0.000000 0.000000 0.000000 9.028563 -0.103889 -0.473627 6.200949 0.243891 0.367318 0.000000 0.000000 0.000000 9.028563 -0.103889 -0.473627 0.681782 3.908471 -11.397477 74.323537 -65.285503 4.646515 0.000007 -18.010090 -0.000004 0.000000 0.000000 0.000000 9.028563 -0.103889 -0.473627 1.412993 0.332768 10.813718 8.850516 40.127194 57.894049 -0.000001 26.003474 0.000001 0.000000 0.000000 0.000000 
-0.406538 88.646568 8.714550 0.000000 0.000000 0.000000 -13.181582 -1.775184 -4.911396 -37.568704 19.148205 12.580046 46.036984 -8.865289 10.643709 1.281906 -7.822953 -1.532331 0.000000 0.000000 0.000000 -13.181582 -1.775184 -4.911396 -25.472998 -35.069278 -2.453596 39.551197 9.474104 -10.316354 -1.211364 6.564156 -5.447981 0.000000 0.000000 0.000000 -13.181582 -1.775184 -4.911396 0.000000 0.000000 0.000000 5.918650 -0.759865 2.892235 9.018470 -0.421016 -0.454876 0.000000 0.000000 0.000000 9.025357 -0.094396 -0.473342 6.201417 0.245469 0.362682 0.000000 0.000000 0.000000 9.025357 -0.094396 -0.473342 0.682937 3.924066 -11.425493 74.279701 -65.233866 4.635981 0.000013 -18.066235 0.000021 0.000000 0.000000 0.000000 9.025357 -0.094396 -0.473342 1.413250 0.336095 10.799356 8.846332 40.120483 57.885027 0.000008 26.006522 -0.000012 0.000000 0.000000 0.000000 
-0.394239 88.647903 8.714806 0.000000 0.000000 0.000000 -13.185654 -1.810768 -4.894476 -37.550229 19.209304 12.580140 46.022074 -8.866901 10.642925 1.276098 -7.833214 -1.517675 0.000000 0.000000 0.000000 -13.185654 -1.810768 -4.894476 -25.497696 -34.972064 -2.452179 39.569079 9.470085 -10.320079 -1.202671 6.527381 -5.421055 0.000000 0.000000 0.000000 -13.185654 -1.810768 -4.894476 0.000000 0.000000 0.000001 5.917790 -0.755593 2.884367 9.015935 -0.413233 -0.454230 0.000000 0.000000 0.000000 9.022701 -0.086282 -0.473039 6.201789 0.247238 0.357882 0.000000 0.000000 0.000000 9.022701 -0.086282 -0.473039 0.684059 3.939020 -11.452422 74.202472 -65.177825 4.592537 0.000008 -18.130768 -0.000007 0.000000 0.000000 0.000000 9.022701 -0.086282 -0.473039 1.414565 0.343947 10.791923 8.851291 40.106656 57.862726 -0.000005 26.024377 0.000028 0.000000 0.000000 0.000000 
-0.383549 88.648376 8.715509 0.000000 0.000000 0.000000 -13.189841 -1.842519 -4.876440 -37.531661 19.265255 12.577554 46.008434 -8.868587 10.641950 1.270717 -7.841711 -1.504730 0.000000 0.000000 0.000000 -13.189841 -1.842519 -4.876440 -25.526802 -34.882562 -2.457037 39.591881 9.464293 -10.325261 -1.196555 6.503502 -5.395067 0.000000 0.000000 0.000000 -13.189841 -1.842519 -4.876440 0.000000 0.000000 0.000000 5.916980 -0.751741 2.873851 9.013796 -0.406900 -0.453622 0.000000 0.000000 0.000000 9.020475 -0.079824 -0.472674 6.202234 0.249137 0.353051 0.000000 0.000000 0.000000 9.020475 -0.079824 -0.472674 0.685118 3.952923 -11.477674 74.095818 -65.119222 4.518429 -0.000005 -18.201464 0.000005 0.000000 0.000000 0.000000 9.020475 -0.079824 -0.472674 1.416784 0.355709 10.790262 8.863879 40.086575 57.830617 0.000001 26.055131 0.000002 0.000000 0.000000 0.000000 
-0.374812 88.647675 8.716747 0.000000 0.000000 0.000000 -13.193966 -1.869600 -4.857461 -37.514107 19.314612 12.572246 45.997581 -8.870294 10.640859 1.265403 -7.848270 -1.493939 0.000000 0.000000 0.000000 -13.193966 -1.869600 -4.857461 -25.561146 -34.803147 -2.469102 39.620841 9.456551 -10.332081 -1.193872 6.494829 -5.370611 0.000000 0.000000 0.000000 -13.193966 -1.869600 -4.857461 -0.000001 0.000000 0.000000 5.916141 -0.748378 2.860584 9.011901 -0.402152 -0.453031 0.000000 0.000000 0.000000 9.018515 -0.075172 -0.472221 6.202945 0.251122 0.348354 0.000000 0.000000 0.000000 9.018515 -0.075172 -0.472221 0.686102 3.965377 -11.500591 73.964747 -65.059758 4.417145 0.000001 -18.276551 -0.000005 0.000000 0.000000 0.000000 9.018515 -0.075172 -0.472221 1.419722 0.370545 10.793311 8.882754 40.061197 57.791802 0.000002 26.096802 -0.000016 0.000000 0.000000 0.000000 
-0.368374 88.645744 8.718594 0.000000 0.000000 0.000000 -13.197887 -1.891512 -4.837748 -37.497735 19.356608 12.564269 45.989764 -8.871666 10.639578 1.259987 -7.852990 -1.484886 0.000000 0.000000 0.000000 -13.197887 -1.891512 -4.837748 -25.600789 -34.735057 -2.488757 39.656386 9.449804 -10.340565 -1.194312 6.502370 -5.348024 0.000000 0.000000 0.000000 -13.197887 -1.891512 -4.837748 0.000000 0.000000 0.000000 5.915194 -0.745540 2.844651 9.010078 -0.399022 -0.452453 0.000000 0.000000 0.000000 9.016657 -0.072352 -0.471677 6.204058 0.253142 0.343981 0.000000 0.000000 0.000000 9.016657 -0.072352 -0.471677 0.686977 3.976032 -11.520552 73.814572 -65.001025 4.292688 0.000001 -18.354178 -0.000002 0.000000 0.000000 0.000000 9.016657 -0.072352 -0.471677 1.423166 0.387464 10.800302 8.906779 40.031585 57.748949 -0.000013 26.147072 0.000035 0.000000 0.000000 0.000000 
-0.364305 88.642365 8.721024 0.000000 0.000000 0.000000 -13.201467 -1.908173 -4.817627 -37.483948 19.390560 12.554485 45.986294 -8.873119 10.638254 1.254277 -7.855789 -1.478868 0.000000 0.000000 0.000000 -13.201467 -1.908173 -4.817627 -25.645948 -34.678954 -2.515663 39.698743 9.442271 -10.350990 -1.198430 6.525903 -5.327372 0.000000 0.000000 0.000000 -13.201467 -1.908173 -4.817627 0.000000 0.000000 0.000000 5.914116 -0.743201 2.826407 9.008163 -0.397412 -0.451910 0.000000 0.000000 0.000000 9.014730 -0.071260 -0.471072 6.205810 0.255154 0.340139 0.000000 0.000000 0.000000 9.014730 -0.071260 -0.471072 0.687712 3.984596 -11.536989 73.650893 -64.944533 4.149680 -0.000007 -18.432558 -0.000002 0.000000 0.000000 0.000000 9.014730 -0.071260 -0.471072 1.426895 0.405394 10.810869 8.935167 39.998756 57.704013 0.000000 26.203543 0.000006 0.000000 0.000000 0.000000 
-0.362568 88.637779 8.723999 0.000000 0.000000 0.000000 -13.204678 -1.919840 -4.797430 -37.472265 19.417067 12.543075 45.986284 -8.874234 10.636783 1.248392 -7.857211 -1.474549 0.000000 0.000000 0.000000 -13.204678 -1.919840 -4.797430 -25.694632 -34.634629 -2.548381 39.745482 9.433958 -10.362600 -1.205430 6.563999 -5.309099 0.000000 0.000000 0.000000 -13.204678 -1.919840 -4.797430 0.000000 0.000000 0.000000 5.912821 -0.741326 2.806364 9.006013 -0.397121 -0.451443 0.000000 0.000000 0.000000 9.012583 -0.071659 -0.470466 6.208195 0.257122 0.337057 0.000000 0.000000 0.000000 9.012583 -0.071659 -0.470466 0.688297 3.990848 -11.549461 73.478895 -64.891250 3.992781 -0.000007 -18.510368 0.000015 0.000000 0.000000 0.000000 9.012583 -0.071659 -0.470466 1.430678 0.423222 10.825105 8.967739 39.963679 57.657930 -0.000001 26.264065 -0.000001 0.000000 0.000000 0.000000 
-0.362878 88.632141 8.727419 0.000000 0.000000 0.000000 -13.207501 -1.927081 -4.777576 -37.463178 19.436613 12.530758 45.989972 -8.874981 10.635327 1.242235 -7.857606 -1.472254 0.000000 0.000000 0.000000 -13.207501 -1.927081 -4.777576 -25.746309 -34.601008 -2.586039 39.795564 9.421167 -10.374970 -1.215179 6.617709 -5.292930 0.000000 0.000000 0.000000 -13.207501 -1.927081 -4.777576 0.000000 0.000000 0.000000 5.911252 -0.739845 2.785168 9.003462 -0.397863 -0.451116 0.000000 0.000000 0.000000 9.010054 -0.073211 -0.469936 6.211368 0.259003 0.334941 0.000000 0.000000 0.000000 9.010054 -0.073211 -0.469936 0.688698 3.994661 -11.557657 73.303749 -64.842182 3.826930 0.000008 -18.586002 0.000014 0.000000 0.000000 0.000000 9.010054 -0.073211 -0.469936 1.434347 0.439891 10.843538 9.004736 39.927223 57.610569 0.000006 26.326715 -0.000002 0.000000 0.000000 0.000000 
-0.364961 88.625893 8.731146 0.000000 0.000000 0.000000 -13.209907 -1.930618 -4.758528 -37.456040 19.450183 12.518483 45.995887 -8.875720 10.633778 1.236144 -7.857322 -1.472095 0.000000 0.000000 0.000000 -13.209907 -1.930618 -4.758528 -25.798731 -34.576808 -2.626615 39.846316 9.403857 -10.387462 -1.226808 6.684051 -5.278840 0.000000 0.000000 0.000000 -13.209907 -1.930618 -4.758528 0.000001 0.000000 0.000000 5.909425 -0.738658 2.763612 9.000413 -0.399285 -0.450999 0.000000 0.000000 0.000000 9.007024 -0.075512 -0.469573 6.215329 0.260768 0.333980 0.000000 0.000000 0.000000 9.007024 -0.075512 -0.469573 0.688939 3.996038 -11.561547 73.129825 -64.797506 3.656853 -0.000002 -18.658719 -0.000001 0.000000 0.000000 0.000000 9.007024 -0.075512 -0.469573 1.437732 0.454460 10.866996 9.046848 39.890087 57.561098 -0.000005 26.389969 0.000035 0.000000 0.000000 0.000000 
-0.368350 88.619415 8.735069 0.000000 0.000000 0.000000 -13.211891 -1.931295 -4.740679 -37.451037 19.459035 12.506516 46.003841 -8.876063 10.632412 1.230080 -7.856911 -1.473014 0.000000 0.000000 0.000000 -13.211891 -1.931295 -4.740679 -25.849759 -34.560621 -2.667562 39.896361 9.386690 -10.400025 -1.239485 6.754591 -5.266900 0.000000 0.000000 0.000000 -13.211891 -1.931295 -4.740679 0.000000 0.000000 0.000001 5.907335 -0.737661 2.742468 8.996763 -0.400998 -0.451161 0.000000 0.000000 0.000000 9.003410 -0.078127 -0.469467 6.220059 0.262381 0.334322 0.000000 0.000000 0.000000 9.003410 -0.078127 -0.469467 0.688995 3.995122 -11.561356 72.960846 -64.757556 3.486866 0.000005 -18.727019 -0.000003 0.000000 0.000000 0.000000 9.003410 -0.078127 -0.469467 1.440711 0.466172 10.896441 9.094841 39.853013 57.508205 0.000009 26.452445 0.000003 0.000000 0.000000 0.000000 
-0.372620 88.613220 8.738962 0.000000 0.000000 0.000000 -13.213540 -1.930015 -4.724553 -37.447192 19.464250 12.495804 46.011849 -8.876425 10.631084 1.224670 -7.856545 -1.475560 0.000000 0.000000 0.000000 -13.213540 -1.930015 -4.724553 -25.896842 -34.550635 -2.706421 39.942916 9.370390 -10.412071 -1.252065 6.824665 -5.256995 0.000000 0.000000 0.000000 -13.213540 -1.930015 -4.724553 0.000001 0.000000 0.000000 5.904945 -0.736754 2.722579 8.992449 -0.402630 -0.451645 0.000000 0.000000 0.000000 8.999123 -0.080612 -0.469681 6.225483 0.263804 0.336051 0.000000 0.000000 0.000000 8.999123 -0.080612 -0.469681 0.688914 3.992204 -11.557676 72.800152 -64.721807 3.321120 0.000002 -18.790767 -0.000011 0.000000 0.000000 0.000000 8.999123 -0.080612 -0.469681 1.443196 0.474503 10.932747 9.149788 39.816427 57.449916 -0.000003 26.513439 0.000003 0.000000 0.000000 0.000000 
-0.377305 88.607826 8.742664 0.000000 0.000000 0.000000 -13.214798 -1.927629 -4.710571 -37.444040 19.467007 12.486458 46.018809 -8.876557 10.629940 1.220145 -7.856627 -1.478506 0.000000 0.000000 0.000000 -13.214798 -1.927629 -4.710571 -25.937602 -34.545266 -2.740836 39.983220 9.355798 -10.423024 -1.263412 6.889730 -5.249018 0.000000 0.000000 0.000000 -13.214798 -1.927629 -4.710571 0.000001 0.000000 0.000000 5.902250 -0.735834 2.704709 8.987400 -0.403828 -0.452461 0.000000 0.000000 0.000000 8.994098 -0.082571 -0.470244 6.231548 0.265003 0.339175 0.000000 0.000000 0.000000 8.994098 -0.082571 -0.470244 0.688727 3.987749 -11.551414 72.650011 -64.689787 3.162979 -0.000015 -18.849068 -0.000005 0.000000 0.000000 0.000000 8.994098 -0.082571 -0.470244 1.445178 0.479202 10.976463 9.212225 39.780798 57.384907 0.000007 26.572139 -0.000033 0.000000 0.000000 0.000000 
